<svg width="78" height="79" viewBox="0 0 78 79" fill="none" xmlns="http://www.w3.org/2000/svg">
<g filter="url(#filter0_d_2_623)">
<circle cx="39" cy="36" r="30" fill="#434852"/>
<circle cx="39" cy="36" r="29.1176" stroke="#959595" stroke-width="1.76471"/>
</g>
<path d="M26 36C26 35.4093 26.2148 34.8992 26.6444 34.4696C27.0739 34.0401 27.5841 33.8253 28.1747 33.8253H36.8414V25.1747C36.8414 24.5841 37.0508 24.0739 37.4696 23.6444C37.8992 23.2148 38.4093 23 39 23C39.6014 23 40.1115 23.2148 40.5304 23.6444C40.9599 24.0739 41.1747 24.5841 41.1747 25.1747V33.8253H49.8414C50.4321 33.8253 50.9368 34.0401 51.3556 34.4696C51.7852 34.8992 52 35.4093 52 36C52 36.6014 51.7852 37.1169 51.3556 37.5465C50.9368 37.9653 50.4321 38.1747 49.8414 38.1747H41.1747V46.8414C41.1747 47.4321 40.9599 47.9368 40.5304 48.3556C40.1115 48.7852 39.6014 49 39 49C38.4093 49 37.8992 48.7852 37.4696 48.3556C37.0508 47.9368 36.8414 47.4321 36.8414 46.8414V38.1747H28.1747C27.5841 38.1747 27.0739 37.9653 26.6444 37.5465C26.2148 37.1169 26 36.6014 26 36Z" fill="#F2F2F2"/>
<defs>
<filter id="filter0_d_2_623" x="0.176471" y="0.705883" width="77.6471" height="77.6471" filterUnits="userSpaceOnUse" color-interpolation-filters="sRGB">
<feFlood flood-opacity="0" result="BackgroundImageFix"/>
<feColorMatrix in="SourceAlpha" type="matrix" values="0 0 0 0 0 0 0 0 0 0 0 0 0 0 0 0 0 0 127 0" result="hardAlpha"/>
<feOffset dy="3.52941"/>
<feGaussianBlur stdDeviation="4.41176"/>
<feComposite in2="hardAlpha" operator="out"/>
<feColorMatrix type="matrix" values="0 0 0 0 0 0 0 0 0 0 0 0 0 0 0 0 0 0 0.16 0"/>
<feBlend mode="normal" in2="BackgroundImageFix" result="effect1_dropShadow_2_623"/>
<feBlend mode="normal" in="SourceGraphic" in2="effect1_dropShadow_2_623" result="shape"/>
</filter>
</defs>
</svg>
