<svg width="44" height="44" viewBox="0 0 44 44" fill="none" xmlns="http://www.w3.org/2000/svg">
<g filter="url(#filter0_d_2_609)">
<circle cx="22" cy="20" r="17" fill="#434852"/>
<circle cx="22" cy="20" r="16.5" stroke="#959595"/>
</g>
<path d="M14.6807 26.4766C14.0654 26.4766 13.5892 26.3125 13.252 25.9844C12.9193 25.6562 12.7529 25.1868 12.7529 24.5762V18.6357C12.7529 18.0296 12.9193 17.5625 13.252 17.2344C13.5892 16.9017 14.0654 16.7354 14.6807 16.7354H27.2314L25.7617 18.2051H15.0977C14.61 18.2051 14.3662 18.4512 14.3662 18.9434V24.2754C14.3662 24.5033 14.4277 24.6833 14.5508 24.8154C14.6784 24.943 14.8607 25.0068 15.0977 25.0068H28.6055C28.8424 25.0068 29.0247 24.943 29.1523 24.8154C29.2799 24.6833 29.3438 24.5033 29.3438 24.2754V20.3516L30.957 18.7451V24.5762C30.957 25.1868 30.7884 25.6562 30.4512 25.9844C30.1185 26.3125 29.6468 26.4766 29.0361 26.4766H14.6807ZM16.752 22.6211C16.4694 22.6211 16.2279 22.5208 16.0273 22.3203C15.8314 22.1198 15.7334 21.8805 15.7334 21.6025C15.7334 21.3291 15.8314 21.0944 16.0273 20.8984C16.2279 20.6979 16.4694 20.5977 16.752 20.5977C17.0254 20.5977 17.2601 20.6979 17.4561 20.8984C17.6566 21.0944 17.7568 21.3291 17.7568 21.6025C17.7568 21.8805 17.6566 22.1198 17.4561 22.3203C17.2601 22.5208 17.0254 22.6211 16.752 22.6211ZM19.6914 22.6211C19.4134 22.6211 19.1742 22.5208 18.9736 22.3203C18.7777 22.1198 18.6797 21.8805 18.6797 21.6025C18.6797 21.3291 18.7777 21.0944 18.9736 20.8984C19.1742 20.6979 19.4134 20.5977 19.6914 20.5977C19.9694 20.5977 20.2064 20.6979 20.4023 20.8984C20.6029 21.0944 20.7031 21.3291 20.7031 21.6025C20.7031 21.8805 20.6029 22.1198 20.4023 22.3203C20.2064 22.5208 19.9694 22.6211 19.6914 22.6211ZM22.6377 22.6211C22.3597 22.6211 22.1227 22.5208 21.9268 22.3203C21.7308 22.1198 21.6328 21.8805 21.6328 21.6025C21.6328 21.3291 21.7308 21.0944 21.9268 20.8984C22.1227 20.6979 22.3597 20.5977 22.6377 20.5977C22.9202 20.5977 23.1595 20.6979 23.3555 20.8984C23.5514 21.0944 23.6494 21.3291 23.6494 21.6025C23.6494 21.8805 23.5514 22.1198 23.3555 22.3203C23.1595 22.5208 22.9202 22.6211 22.6377 22.6211ZM25.2217 21.9238C25.1305 21.9603 25.0439 21.9398 24.9619 21.8623C24.8844 21.7848 24.8662 21.6982 24.9072 21.6025L25.5156 20.2012L30.9229 14.7871L32.0576 15.9219L26.6436 21.3359L25.2217 21.9238ZM32.5771 15.4023L31.4355 14.2676L31.873 13.8369C32.0143 13.6956 32.1784 13.6182 32.3652 13.6045C32.5566 13.5863 32.7139 13.6387 32.8369 13.7617L33.042 13.9531C33.1833 14.0944 33.2516 14.2607 33.2471 14.4521C33.2425 14.639 33.1673 14.8053 33.0215 14.9512L32.5771 15.4023Z" fill="#F2F2F2"/>
<defs>
<filter id="filter0_d_2_609" x="0" y="0" width="44" height="44" filterUnits="userSpaceOnUse" color-interpolation-filters="sRGB">
<feFlood flood-opacity="0" result="BackgroundImageFix"/>
<feColorMatrix in="SourceAlpha" type="matrix" values="0 0 0 0 0 0 0 0 0 0 0 0 0 0 0 0 0 0 127 0" result="hardAlpha"/>
<feOffset dy="2"/>
<feGaussianBlur stdDeviation="2.5"/>
<feComposite in2="hardAlpha" operator="out"/>
<feColorMatrix type="matrix" values="0 0 0 0 0 0 0 0 0 0 0 0 0 0 0 0 0 0 0.16 0"/>
<feBlend mode="normal" in2="BackgroundImageFix" result="effect1_dropShadow_2_609"/>
<feBlend mode="normal" in="SourceGraphic" in2="effect1_dropShadow_2_609" result="shape"/>
</filter>
</defs>
</svg>
